{
  "accessors": [
    {
      "bufferView": 2,
      "componentType": 5126,
      "count": 463,
      "max": [
        16.843833923339844,
        1.4206727743148804,
        0.93628859519958496
      ],
      "min": [
        -2.9643821716308594,
        -1.418952465057373,
        -0.93628907203674316
      ],
      "type": "VEC3"
    },
    {
      "bufferView": 2,
      "byteOffset": 5556,
      "componentType": 5126,
      "count": 463,
      "max": [
        1,
        1,
        1
      ],
      "min": [
        -0.88003444671630859,
        -1,
        -1
      ],
      "type": "VEC3"
    },
    {
      "bufferView": 3,
      "componentType": 5126,
      "count": 463,
      "max": [
        1,
        0.87997943162918091,
        0.99662911891937256,
        1
      ],
      "min": [
        -0.47488042712211609,
        -0.99993938207626343,
        -0.99662917852401733,
        -1
      ],
      "type": "VEC4"
    },
    {
      "bufferView": 1,
      "componentType": 5126,
      "count": 463,
      "max": [
        0.99490857124328613,
        0.67328381538391113
      ],
      "min": [
        0.21071788668632507,
        0.16658905148506165
      ],
      "type": "VEC2"
    },
    {
      "bufferView": 0,
      "componentType": 5125,
      "count": 1140,
      "max": [
        462
      ],
      "min": [
        0
      ],
      "type": "SCALAR"
    },
    {
      "bufferView": 2,
      "byteOffset": 11112,
      "componentType": 5126,
      "count": 238,
      "max": [
        1.0362796783447266,
        1.9166195392608643,
        0.40943789482116699
      ],
      "min": [
        -1.6518678665161133,
        -1.9166195392608643,
        -0.40943723917007446
      ],
      "type": "VEC3"
    },
    {
      "bufferView": 2,
      "byteOffset": 13968,
      "componentType": 5126,
      "count": 238,
      "max": [
        1,
        0.99647659063339233,
        1
      ],
      "min": [
        -1,
        -0.99643135070800781,
        -1
      ],
      "type": "VEC3"
    },
    {
      "bufferView": 3,
      "byteOffset": 7408,
      "componentType": 5126,
      "count": 238,
      "max": [
        0.88289022445678711,
        0.99999892711639404,
        0.91766494512557983,
        1
      ],
      "min": [
        -0.99668037891387939,
        -1,
        -0.91854417324066162,
        1
      ],
      "type": "VEC4"
    },
    {
      "bufferView": 1,
      "byteOffset": 3704,
      "componentType": 5126,
      "count": 238,
      "max": [
        0.88710653781890869,
        0.5
      ],
      "min": [
        4.76837158203125e-07,
        0.0012268424034118652
      ],
      "type": "VEC2"
    },
    {
      "bufferView": 0,
      "byteOffset": 4560,
      "componentType": 5125,
      "count": 600,
      "max": [
        237
      ],
      "min": [
        0
      ],
      "type": "SCALAR"
    },
    {
      "bufferView": 2,
      "byteOffset": 16824,
      "componentType": 5126,
      "count": 98,
      "max": [
        0.97412729263305664,
        1.9166195392608643,
        0.40943723917007446
      ],
      "min": [
        -2.5504765510559082,
        -1.9166195392608643,
        -0.40943723917007446
      ],
      "type": "VEC3"
    },
    {
      "bufferView": 2,
      "byteOffset": 18000,
      "componentType": 5126,
      "count": 98,
      "max": [
        1,
        1,
        1
      ],
      "min": [
        -1,
        -1,
        -1
      ],
      "type": "VEC3"
    },
    {
      "bufferView": 3,
      "byteOffset": 11216,
      "componentType": 5126,
      "count": 98,
      "max": [
        1,
        0.068564116954803467,
        0.99772828817367554,
        1
      ],
      "min": [
        -0.99999910593032837,
        -1,
        -1,
        -1
      ],
      "type": "VEC4"
    },
    {
      "bufferView": 1,
      "byteOffset": 5608,
      "componentType": 5126,
      "count": 98,
      "max": [
        0.40742269158363342,
        0.96416056156158447
      ],
      "min": [
        -0.099849075078964233,
        -0.57315701246261597
      ],
      "type": "VEC2"
    },
    {
      "bufferView": 0,
      "byteOffset": 6960,
      "componentType": 5125,
      "count": 216,
      "max": [
        97
      ],
      "min": [
        0
      ],
      "type": "SCALAR"
    },
    {
      "bufferView": 2,
      "byteOffset": 19176,
      "componentType": 5126,
      "count": 1805,
      "max": [
        22.903409957885742,
        3.6520588397979736,
        3.6191849708557129
      ],
      "min": [
        15.584861755371094,
        -3.6664910316467285,
        0.38081490993499756
      ],
      "type": "VEC3"
    },
    {
      "bufferView": 2,
      "byteOffset": 40836,
      "componentType": 5126,
      "count": 1805,
      "max": [
        1,
        1,
        1
      ],
      "min": [
        -1,
        -1,
        -1
      ],
      "type": "VEC3"
    },
    {
      "bufferView": 3,
      "byteOffset": 12784,
      "componentType": 5126,
      "count": 1805,
      "max": [
        1,
        1,
        1,
        1
      ],
      "min": [
        -1,
        -1,
        -1,
        -1
      ],
      "type": "VEC4"
    },
    {
      "bufferView": 1,
      "byteOffset": 6392,
      "componentType": 5126,
      "count": 1805,
      "max": [
        0.96341705322265625,
        0.85188877582550049
      ],
      "min": [
        0.013071626424789429,
        0.39478921890258789
      ],
      "type": "VEC2"
    },
    {
      "bufferView": 0,
      "byteOffset": 7824,
      "componentType": 5125,
      "count": 4800,
      "max": [
        1804
      ],
      "min": [
        0
      ],
      "type": "SCALAR"
    },
    {
      "bufferView": 2,
      "byteOffset": 62496,
      "componentType": 5126,
      "count": 489,
      "max": [
        81.739715576171875,
        1.4194846153259277,
        2.1723480224609375
      ],
      "min": [
        23.208133697509766,
        -1.4334259033203125,
        1.7741715908050537
      ],
      "type": "VEC3"
    },
    {
      "bufferView": 2,
      "byteOffset": 68364,
      "componentType": 5126,
      "count": 489,
      "max": [
        0.9138302206993103,
        1,
        1
      ],
      "min": [
        -1,
        -1,
        -1
      ],
      "type": "VEC3"
    },
    {
      "bufferView": 3,
      "byteOffset": 41664,
      "componentType": 5126,
      "count": 489,
      "max": [
        1,
        0.99447095394134521,
        0.99854755401611328,
        1
      ],
      "min": [
        -1,
        -0.91382437944412231,
        -0.99925661087036133,
        -1
      ],
      "type": "VEC4"
    },
    {
      "bufferView": 1,
      "byteOffset": 20832,
      "componentType": 5126,
      "count": 489,
      "max": [
        0.99549365043640137,
        0.99584966897964478
      ],
      "min": [
        0.05430232360959053,
        0.0063577219843864441
      ],
      "type": "VEC2"
    },
    {
      "bufferView": 0,
      "byteOffset": 27024,
      "componentType": 5125,
      "count": 1128,
      "max": [
        488
      ],
      "min": [
        0
      ],
      "type": "SCALAR"
    }
  ],
  "asset": {
    "extras": {
      "author": "reyad.bader (https://sketchfab.com/reyad.bader)",
      "license": "CC-BY-4.0 (http://creativecommons.org/licenses/by/4.0/)",
      "source": "https://sketchfab.com/3d-models/final01-a82108cfdf55415fbdcdfd8c44be4af2",
      "title": "Final01"
    },
    "generator": "Sketchfab-6.33.0",
    "version": "2.0"
  },
  "bufferViews": [
    {
      "buffer": 0,
      "byteLength": 31536,
      "byteOffset": 0,
      "name": "floatBufferViews",
      "target": 34963
    },
    {
      "buffer": 0,
      "byteLength": 24744,
      "byteOffset": 31536,
      "byteStride": 8,
      "name": "floatBufferViews",
      "target": 34962
    },
    {
      "buffer": 0,
      "byteLength": 74232,
      "byteOffset": 56280,
      "byteStride": 12,
      "name": "floatBufferViews",
      "target": 34962
    },
    {
      "buffer": 0,
      "byteLength": 49488,
      "byteOffset": 130512,
      "byteStride": 16,
      "name": "floatBufferViews",
      "target": 34962
    }
  ],
  "buffers": [
    {
      "byteLength": 180000,
      "uri": "scene.bin"
    }
  ],
  "images": [
    {
      "uri": "textures/aiStandardSurface1_metallicRoughness.png"
    },
    {
      "uri": "textures/aiStandardSurface1_emissive.png"
    }
  ],
  "materials": [
    {
      "doubleSided": true,
      "emissiveFactor": [
        1,
        1,
        1
      ],
      "emissiveTexture": {
        "index": 1,
        "texCoord": 0
      },
      "name": "aiStandardSurface1",
      "pbrMetallicRoughness": {
        "baseColorFactor": [
          1,
          1,
          1,
          1
        ],
        "metallicFactor": 1,
        "metallicRoughnessTexture": {
          "index": 0,
          "texCoord": 0
        },
        "roughnessFactor": 1
      }
    }
  ],
  "meshes": [
    {
      "name": "pCylinder1_aiStandardSurface1_0",
      "primitives": [
        {
          "attributes": {
            "NORMAL": 1,
            "POSITION": 0,
            "TANGENT": 2,
            "TEXCOORD_0": 3
          },
          "indices": 4,
          "material": 0,
          "mode": 4
        }
      ]
    },
    {
      "name": "pCube1_aiStandardSurface1_0",
      "primitives": [
        {
          "attributes": {
            "NORMAL": 6,
            "POSITION": 5,
            "TANGENT": 7,
            "TEXCOORD_0": 8
          },
          "indices": 9,
          "material": 0,
          "mode": 4
        }
      ]
    },
    {
      "name": "pCube2_aiStandardSurface1_0",
      "primitives": [
        {
          "attributes": {
            "NORMAL": 11,
            "POSITION": 10,
            "TANGENT": 12,
            "TEXCOORD_0": 13
          },
          "indices": 14,
          "material": 0,
          "mode": 4
        }
      ]
    },
    {
      "name": "pCylinder6_aiStandardSurface1_0",
      "primitives": [
        {
          "attributes": {
            "NORMAL": 16,
            "POSITION": 15,
            "TANGENT": 17,
            "TEXCOORD_0": 18
          },
          "indices": 19,
          "material": 0,
          "mode": 4
        }
      ]
    },
    {
      "name": "pCube12_aiStandardSurface1_0",
      "primitives": [
        {
          "attributes": {
            "NORMAL": 21,
            "POSITION": 20,
            "TANGENT": 22,
            "TEXCOORD_0": 23
          },
          "indices": 24,
          "material": 0,
          "mode": 4
        }
      ]
    }
  ],
  "nodes": [
    {
      "children": [
        1
      ],
      "name": "RootNode (gltf orientation matrix)",
      "rotation": [
        -0.70710678118654746,
        -0,
        -0,
        0.70710678118654757
      ]
    },
    {
      "children": [
        2
      ],
      "name": "RootNode (model correction matrix)"
    },
    {
      "children": [
        3
      ],
      "matrix": [
        1,
        0,
        0,
        0,
        0,
        0,
        1,
        0,
        0,
        -1,
        0,
        0,
        0,
        0,
        0,
        1
      ],
      "name": "1a8899cf3b754d47a87e52b12c15723a.fbx"
    },
    {
      "children": [
        4,
        6,
        8,
        10,
        12
      ],
      "name": "RootNode"
    },
    {
      "children": [
        5
      ],
      "matrix": [
        10,
        0,
        0,
        0,
        0,
        10,
        0,
        0,
        0,
        0,
        9.2260360717773438,
        0,
        -27.165168762207031,
        0.25089657306671143,
        19.921875,
        1
      ],
      "name": "pCylinder1"
    },
    {
      "mesh": 0,
      "name": "pCylinder1_aiStandardSurface1_0"
    },
    {
      "children": [
        7
      ],
      "matrix": [
        10,
        0,
        0,
        0,
        0,
        10,
        0,
        0,
        0,
        0,
        23.671310424804688,
        0,
        154.39509582519531,
        -0.20091371238231659,
        20.047185897827148,
        1
      ],
      "name": "pCube1"
    },
    {
      "mesh": 1,
      "name": "pCube1_aiStandardSurface1_0"
    },
    {
      "children": [
        9
      ],
      "matrix": [
        -10,
        -0,
        -0,
        -0,
        -0,
        10,
        1.2246467991473533e-15,
        -0,
        -0,
        -6.2111861103220603e-16,
        5.0718183517456055,
        -0,
        230.6614990234375,
        -0.20091371238231659,
        20.047185897827148,
        1
      ],
      "name": "pCube2"
    },
    {
      "mesh": 2,
      "name": "pCube2_aiStandardSurface1_0"
    },
    {
      "children": [
        11
      ],
      "matrix": [
        10,
        0,
        0,
        0,
        0,
        10,
        0,
        0,
        0,
        0,
        10,
        0,
        0,
        0,
        0,
        1
      ],
      "name": "pCylinder6"
    },
    {
      "mesh": 3,
      "name": "pCylinder6_aiStandardSurface1_0"
    },
    {
      "children": [
        13
      ],
      "matrix": [
        10,
        0,
        0,
        0,
        0,
        10,
        0,
        0,
        0,
        0,
        10,
        0,
        0,
        0,
        0,
        1
      ],
      "name": "pCube12"
    },
    {
      "mesh": 4,
      "name": "pCube12_aiStandardSurface1_0"
    }
  ],
  "samplers": [
    {
      "magFilter": 9729,
      "minFilter": 9987,
      "wrapS": 10497,
      "wrapT": 10497
    }
  ],
  "scene": 0,
  "scenes": [
    {
      "name": "OSG_Scene",
      "nodes": [
        0
      ]
    }
  ],
  "textures": [
    {
      "sampler": 0,
      "source": 0
    },
    {
      "sampler": 0,
      "source": 1
    }
  ]
}

